solid OpenSCAD_Model
  facet normal -1 0 0
    outer loop
      vertex 9.8 0 8
      vertex 9.8 2 34
      vertex 9.8 2 8
    endloop
  endfacet
  facet normal -1 -0 0
    outer loop
      vertex 9.8 2 34
      vertex 9.8 0 8
      vertex 9.8 0 34
    endloop
  endfacet
  facet normal 0 0 -1
    outer loop
      vertex 8.2 0 34
      vertex 9.8 2 34
      vertex 9.8 0 34
    endloop
  endfacet
  facet normal -0 0 -1
    outer loop
      vertex 9.8 2 34
      vertex 8.2 0 34
      vertex 8.2 2 34
    endloop
  endfacet
  facet normal -0 0 1
    outer loop
      vertex 8.2 2 8
      vertex 9.8 0 8
      vertex 9.8 2 8
    endloop
  endfacet
  facet normal 0 0 1
    outer loop
      vertex 9.8 0 8
      vertex 8.2 2 8
      vertex 8.2 0 8
    endloop
  endfacet
  facet normal 1 -0 0
    outer loop
      vertex 8.2 0 34
      vertex 8.2 2 8
      vertex 8.2 2 34
    endloop
  endfacet
  facet normal 1 0 0
    outer loop
      vertex 8.2 2 8
      vertex 8.2 0 34
      vertex 8.2 0 8
    endloop
  endfacet
  facet normal -1 0 0
    outer loop
      vertex 9.8 32 8
      vertex 9.8 34 34
      vertex 9.8 34 8
    endloop
  endfacet
  facet normal -1 -0 0
    outer loop
      vertex 9.8 34 34
      vertex 9.8 32 8
      vertex 9.8 32 34
    endloop
  endfacet
  facet normal 0 0 -1
    outer loop
      vertex 8.2 32 34
      vertex 9.8 34 34
      vertex 9.8 32 34
    endloop
  endfacet
  facet normal -0 0 -1
    outer loop
      vertex 9.8 34 34
      vertex 8.2 32 34
      vertex 8.2 34 34
    endloop
  endfacet
  facet normal -0 0 1
    outer loop
      vertex 8.2 34 8
      vertex 9.8 32 8
      vertex 9.8 34 8
    endloop
  endfacet
  facet normal 0 0 1
    outer loop
      vertex 9.8 32 8
      vertex 8.2 34 8
      vertex 8.2 32 8
    endloop
  endfacet
  facet normal 1 -0 0
    outer loop
      vertex 8.2 32 34
      vertex 8.2 34 8
      vertex 8.2 34 34
    endloop
  endfacet
  facet normal 1 0 0
    outer loop
      vertex 8.2 34 8
      vertex 8.2 32 34
      vertex 8.2 32 8
    endloop
  endfacet
  facet normal -1 0 0
    outer loop
      vertex 19 0 8
      vertex 19 2 34
      vertex 19 2 8
    endloop
  endfacet
  facet normal -1 -0 0
    outer loop
      vertex 19 2 34
      vertex 19 0 8
      vertex 19 0 34
    endloop
  endfacet
  facet normal 0 0 -1
    outer loop
      vertex 17.4 0 34
      vertex 19 2 34
      vertex 19 0 34
    endloop
  endfacet
  facet normal -0 0 -1
    outer loop
      vertex 19 2 34
      vertex 17.4 0 34
      vertex 17.4 2 34
    endloop
  endfacet
  facet normal -0 0 1
    outer loop
      vertex 17.4 2 8
      vertex 19 0 8
      vertex 19 2 8
    endloop
  endfacet
  facet normal 0 0 1
    outer loop
      vertex 19 0 8
      vertex 17.4 2 8
      vertex 17.4 0 8
    endloop
  endfacet
  facet normal 1 -0 0
    outer loop
      vertex 17.4 0 34
      vertex 17.4 2 8
      vertex 17.4 2 34
    endloop
  endfacet
  facet normal 1 0 0
    outer loop
      vertex 17.4 2 8
      vertex 17.4 0 34
      vertex 17.4 0 8
    endloop
  endfacet
  facet normal -1 0 0
    outer loop
      vertex 19 32 8
      vertex 19 34 34
      vertex 19 34 8
    endloop
  endfacet
  facet normal -1 -0 0
    outer loop
      vertex 19 34 34
      vertex 19 32 8
      vertex 19 32 34
    endloop
  endfacet
  facet normal 0 0 -1
    outer loop
      vertex 17.4 32 34
      vertex 19 34 34
      vertex 19 32 34
    endloop
  endfacet
  facet normal -0 0 -1
    outer loop
      vertex 19 34 34
      vertex 17.4 32 34
      vertex 17.4 34 34
    endloop
  endfacet
  facet normal -0 0 1
    outer loop
      vertex 17.4 34 8
      vertex 19 32 8
      vertex 19 34 8
    endloop
  endfacet
  facet normal 0 0 1
    outer loop
      vertex 19 32 8
      vertex 17.4 34 8
      vertex 17.4 32 8
    endloop
  endfacet
  facet normal 1 -0 0
    outer loop
      vertex 17.4 32 34
      vertex 17.4 34 8
      vertex 17.4 34 34
    endloop
  endfacet
  facet normal 1 0 0
    outer loop
      vertex 17.4 34 8
      vertex 17.4 32 34
      vertex 17.4 32 8
    endloop
  endfacet
  facet normal -1 0 0
    outer loop
      vertex 28.2 0 8
      vertex 28.2 2 34
      vertex 28.2 2 8
    endloop
  endfacet
  facet normal -1 -0 0
    outer loop
      vertex 28.2 2 34
      vertex 28.2 0 8
      vertex 28.2 0 34
    endloop
  endfacet
  facet normal 0 0 -1
    outer loop
      vertex 26.6 0 34
      vertex 28.2 2 34
      vertex 28.2 0 34
    endloop
  endfacet
  facet normal -0 0 -1
    outer loop
      vertex 28.2 2 34
      vertex 26.6 0 34
      vertex 26.6 2 34
    endloop
  endfacet
  facet normal -0 0 1
    outer loop
      vertex 26.6 2 8
      vertex 28.2 0 8
      vertex 28.2 2 8
    endloop
  endfacet
  facet normal 0 0 1
    outer loop
      vertex 28.2 0 8
      vertex 26.6 2 8
      vertex 26.6 0 8
    endloop
  endfacet
  facet normal 1 -0 0
    outer loop
      vertex 26.6 0 34
      vertex 26.6 2 8
      vertex 26.6 2 34
    endloop
  endfacet
  facet normal 1 0 0
    outer loop
      vertex 26.6 2 8
      vertex 26.6 0 34
      vertex 26.6 0 8
    endloop
  endfacet
  facet normal -1 0 0
    outer loop
      vertex 28.2 32 8
      vertex 28.2 34 34
      vertex 28.2 34 8
    endloop
  endfacet
  facet normal -1 -0 0
    outer loop
      vertex 28.2 34 34
      vertex 28.2 32 8
      vertex 28.2 32 34
    endloop
  endfacet
  facet normal 0 0 -1
    outer loop
      vertex 26.6 32 34
      vertex 28.2 34 34
      vertex 28.2 32 34
    endloop
  endfacet
  facet normal -0 0 -1
    outer loop
      vertex 28.2 34 34
      vertex 26.6 32 34
      vertex 26.6 34 34
    endloop
  endfacet
  facet normal -0 0 1
    outer loop
      vertex 26.6 34 8
      vertex 28.2 32 8
      vertex 28.2 34 8
    endloop
  endfacet
  facet normal 0 0 1
    outer loop
      vertex 28.2 32 8
      vertex 26.6 34 8
      vertex 26.6 32 8
    endloop
  endfacet
  facet normal 1 -0 0
    outer loop
      vertex 26.6 32 34
      vertex 26.6 34 8
      vertex 26.6 34 34
    endloop
  endfacet
  facet normal 1 0 0
    outer loop
      vertex 26.6 34 8
      vertex 26.6 32 34
      vertex 26.6 32 8
    endloop
  endfacet
  facet normal -1 0 0
    outer loop
      vertex 37.4 0 8
      vertex 37.4 2 34
      vertex 37.4 2 8
    endloop
  endfacet
  facet normal -1 -0 0
    outer loop
      vertex 37.4 2 34
      vertex 37.4 0 8
      vertex 37.4 0 34
    endloop
  endfacet
  facet normal 0 0 -1
    outer loop
      vertex 35.8 0 34
      vertex 37.4 2 34
      vertex 37.4 0 34
    endloop
  endfacet
  facet normal -0 0 -1
    outer loop
      vertex 37.4 2 34
      vertex 35.8 0 34
      vertex 35.8 2 34
    endloop
  endfacet
  facet normal -0 0 1
    outer loop
      vertex 35.8 2 8
      vertex 37.4 0 8
      vertex 37.4 2 8
    endloop
  endfacet
  facet normal 0 0 1
    outer loop
      vertex 37.4 0 8
      vertex 35.8 2 8
      vertex 35.8 0 8
    endloop
  endfacet
  facet normal 1 -0 0
    outer loop
      vertex 35.8 0 34
      vertex 35.8 2 8
      vertex 35.8 2 34
    endloop
  endfacet
  facet normal 1 0 0
    outer loop
      vertex 35.8 2 8
      vertex 35.8 0 34
      vertex 35.8 0 8
    endloop
  endfacet
  facet normal -1 0 0
    outer loop
      vertex 37.4 32 8
      vertex 37.4 34 34
      vertex 37.4 34 8
    endloop
  endfacet
  facet normal -1 -0 0
    outer loop
      vertex 37.4 34 34
      vertex 37.4 32 8
      vertex 37.4 32 34
    endloop
  endfacet
  facet normal 0 0 -1
    outer loop
      vertex 35.8 32 34
      vertex 37.4 34 34
      vertex 37.4 32 34
    endloop
  endfacet
  facet normal -0 0 -1
    outer loop
      vertex 37.4 34 34
      vertex 35.8 32 34
      vertex 35.8 34 34
    endloop
  endfacet
  facet normal -0 0 1
    outer loop
      vertex 35.8 34 8
      vertex 37.4 32 8
      vertex 37.4 34 8
    endloop
  endfacet
  facet normal 0 0 1
    outer loop
      vertex 37.4 32 8
      vertex 35.8 34 8
      vertex 35.8 32 8
    endloop
  endfacet
  facet normal 1 -0 0
    outer loop
      vertex 35.8 32 34
      vertex 35.8 34 8
      vertex 35.8 34 34
    endloop
  endfacet
  facet normal 1 0 0
    outer loop
      vertex 35.8 34 8
      vertex 35.8 32 34
      vertex 35.8 32 8
    endloop
  endfacet
  facet normal -1 0 0
    outer loop
      vertex 46.6 0 8
      vertex 46.6 2 34
      vertex 46.6 2 8
    endloop
  endfacet
  facet normal -1 -0 0
    outer loop
      vertex 46.6 2 34
      vertex 46.6 0 8
      vertex 46.6 0 34
    endloop
  endfacet
  facet normal 0 0 -1
    outer loop
      vertex 45 0 34
      vertex 46.6 2 34
      vertex 46.6 0 34
    endloop
  endfacet
  facet normal -0 0 -1
    outer loop
      vertex 46.6 2 34
      vertex 45 0 34
      vertex 45 2 34
    endloop
  endfacet
  facet normal -0 0 1
    outer loop
      vertex 45 2 8
      vertex 46.6 0 8
      vertex 46.6 2 8
    endloop
  endfacet
  facet normal 0 0 1
    outer loop
      vertex 46.6 0 8
      vertex 45 2 8
      vertex 45 0 8
    endloop
  endfacet
  facet normal 1 -0 0
    outer loop
      vertex 45 0 34
      vertex 45 2 8
      vertex 45 2 34
    endloop
  endfacet
  facet normal 1 0 0
    outer loop
      vertex 45 2 8
      vertex 45 0 34
      vertex 45 0 8
    endloop
  endfacet
  facet normal -1 0 0
    outer loop
      vertex 46.6 32 8
      vertex 46.6 34 34
      vertex 46.6 34 8
    endloop
  endfacet
  facet normal -1 -0 0
    outer loop
      vertex 46.6 34 34
      vertex 46.6 32 8
      vertex 46.6 32 34
    endloop
  endfacet
  facet normal 0 0 -1
    outer loop
      vertex 45 32 34
      vertex 46.6 34 34
      vertex 46.6 32 34
    endloop
  endfacet
  facet normal -0 0 -1
    outer loop
      vertex 46.6 34 34
      vertex 45 32 34
      vertex 45 34 34
    endloop
  endfacet
  facet normal -0 0 1
    outer loop
      vertex 45 34 8
      vertex 46.6 32 8
      vertex 46.6 34 8
    endloop
  endfacet
  facet normal 0 0 1
    outer loop
      vertex 46.6 32 8
      vertex 45 34 8
      vertex 45 32 8
    endloop
  endfacet
  facet normal 1 -0 0
    outer loop
      vertex 45 32 34
      vertex 45 34 8
      vertex 45 34 34
    endloop
  endfacet
  facet normal 1 0 0
    outer loop
      vertex 45 34 8
      vertex 45 32 34
      vertex 45 32 8
    endloop
  endfacet
  facet normal -1 0 0
    outer loop
      vertex 55.8 0 8
      vertex 55.8 2 34
      vertex 55.8 2 8
    endloop
  endfacet
  facet normal -1 -0 0
    outer loop
      vertex 55.8 2 34
      vertex 55.8 0 8
      vertex 55.8 0 34
    endloop
  endfacet
  facet normal 0 0 -1
    outer loop
      vertex 54.2 0 34
      vertex 55.8 2 34
      vertex 55.8 0 34
    endloop
  endfacet
  facet normal -0 0 -1
    outer loop
      vertex 55.8 2 34
      vertex 54.2 0 34
      vertex 54.2 2 34
    endloop
  endfacet
  facet normal -0 0 1
    outer loop
      vertex 54.2 2 8
      vertex 55.8 0 8
      vertex 55.8 2 8
    endloop
  endfacet
  facet normal 0 0 1
    outer loop
      vertex 55.8 0 8
      vertex 54.2 2 8
      vertex 54.2 0 8
    endloop
  endfacet
  facet normal 1 -0 0
    outer loop
      vertex 54.2 0 34
      vertex 54.2 2 8
      vertex 54.2 2 34
    endloop
  endfacet
  facet normal 1 0 0
    outer loop
      vertex 54.2 2 8
      vertex 54.2 0 34
      vertex 54.2 0 8
    endloop
  endfacet
  facet normal -1 0 0
    outer loop
      vertex 55.8 32 8
      vertex 55.8 34 34
      vertex 55.8 34 8
    endloop
  endfacet
  facet normal -1 -0 0
    outer loop
      vertex 55.8 34 34
      vertex 55.8 32 8
      vertex 55.8 32 34
    endloop
  endfacet
  facet normal 0 0 -1
    outer loop
      vertex 54.2 32 34
      vertex 55.8 34 34
      vertex 55.8 32 34
    endloop
  endfacet
  facet normal -0 0 -1
    outer loop
      vertex 55.8 34 34
      vertex 54.2 32 34
      vertex 54.2 34 34
    endloop
  endfacet
  facet normal -0 0 1
    outer loop
      vertex 54.2 34 8
      vertex 55.8 32 8
      vertex 55.8 34 8
    endloop
  endfacet
  facet normal 0 0 1
    outer loop
      vertex 55.8 32 8
      vertex 54.2 34 8
      vertex 54.2 32 8
    endloop
  endfacet
  facet normal 1 -0 0
    outer loop
      vertex 54.2 32 34
      vertex 54.2 34 8
      vertex 54.2 34 34
    endloop
  endfacet
  facet normal 1 0 0
    outer loop
      vertex 54.2 34 8
      vertex 54.2 32 34
      vertex 54.2 32 8
    endloop
  endfacet
  facet normal 1 0 0
    outer loop
      vertex 64 34 42
      vertex 64 28 9
      vertex 64 34 0
    endloop
  endfacet
  facet normal 1 0 0
    outer loop
      vertex 64 34 42
      vertex 64 6 9
      vertex 64 28 9
    endloop
  endfacet
  facet normal 1 0 0
    outer loop
      vertex 64 0 0
      vertex 64 6 9
      vertex 64 0 42
    endloop
  endfacet
  facet normal 1 -0 0
    outer loop
      vertex 64 0 42
      vertex 64 6 9
      vertex 64 34 42
    endloop
  endfacet
  facet normal 1 -0 0
    outer loop
      vertex 64 28 2
      vertex 64 34 0
      vertex 64 28 9
    endloop
  endfacet
  facet normal 1 -0 0
    outer loop
      vertex 64 6 2
      vertex 64 34 0
      vertex 64 28 2
    endloop
  endfacet
  facet normal 1 0 0
    outer loop
      vertex 64 6 2
      vertex 64 0 0
      vertex 64 34 0
    endloop
  endfacet
  facet normal 1 0 0
    outer loop
      vertex 64 6 9
      vertex 64 0 0
      vertex 64 6 2
    endloop
  endfacet
  facet normal 0 0 1
    outer loop
      vertex 64 34 42
      vertex 62 32 42
      vertex 64 0 42
    endloop
  endfacet
  facet normal 0 0 1
    outer loop
      vertex 64 34 42
      vertex 2 32 42
      vertex 62 32 42
    endloop
  endfacet
  facet normal 0 0 1
    outer loop
      vertex 2 32 42
      vertex 0 34 42
      vertex 2 2 42
    endloop
  endfacet
  facet normal -0 0 1
    outer loop
      vertex 0 34 42
      vertex 2 32 42
      vertex 64 34 42
    endloop
  endfacet
  facet normal -0 0 1
    outer loop
      vertex 62 2 42
      vertex 64 0 42
      vertex 62 32 42
    endloop
  endfacet
  facet normal -0 0 1
    outer loop
      vertex 2 2 42
      vertex 64 0 42
      vertex 62 2 42
    endloop
  endfacet
  facet normal 0 0 1
    outer loop
      vertex 2 2 42
      vertex 0 0 42
      vertex 64 0 42
    endloop
  endfacet
  facet normal 0 0 1
    outer loop
      vertex 0 0 42
      vertex 2 2 42
      vertex 0 34 42
    endloop
  endfacet
  facet normal 0 0 -1
    outer loop
      vertex 0 0 0
      vertex 64 34 0
      vertex 64 0 0
    endloop
  endfacet
  facet normal -0 0 -1
    outer loop
      vertex 64 34 0
      vertex 0 0 0
      vertex 0 34 0
    endloop
  endfacet
  facet normal -1 0 0
    outer loop
      vertex 0 0 0
      vertex 0 34 42
      vertex 0 34 0
    endloop
  endfacet
  facet normal -1 -0 0
    outer loop
      vertex 0 34 42
      vertex 0 0 0
      vertex 0 0 42
    endloop
  endfacet
  facet normal 0 1 -0
    outer loop
      vertex 17.4 34 8
      vertex 9.8 34 34
      vertex 17.4 34 34
    endloop
  endfacet
  facet normal 0 1 0
    outer loop
      vertex 9.8 34 34
      vertex 17.4 34 8
      vertex 9.8 34 8
    endloop
  endfacet
  facet normal 0 1 -0
    outer loop
      vertex 26.6 34 8
      vertex 19 34 34
      vertex 26.6 34 34
    endloop
  endfacet
  facet normal 0 1 0
    outer loop
      vertex 19 34 34
      vertex 26.6 34 8
      vertex 19 34 8
    endloop
  endfacet
  facet normal 0 1 -0
    outer loop
      vertex 35.8 34 8
      vertex 28.2 34 34
      vertex 35.8 34 34
    endloop
  endfacet
  facet normal 0 1 0
    outer loop
      vertex 28.2 34 34
      vertex 35.8 34 8
      vertex 28.2 34 8
    endloop
  endfacet
  facet normal 0 1 -0
    outer loop
      vertex 45 34 8
      vertex 37.4 34 34
      vertex 45 34 34
    endloop
  endfacet
  facet normal 0 1 0
    outer loop
      vertex 37.4 34 34
      vertex 45 34 8
      vertex 37.4 34 8
    endloop
  endfacet
  facet normal 0 1 -0
    outer loop
      vertex 54.2 34 8
      vertex 46.6 34 34
      vertex 54.2 34 34
    endloop
  endfacet
  facet normal 0 1 0
    outer loop
      vertex 46.6 34 34
      vertex 54.2 34 8
      vertex 46.6 34 8
    endloop
  endfacet
  facet normal 0 1 0
    outer loop
      vertex 54.2 34 34
      vertex 64 34 42
      vertex 55.8 34 34
    endloop
  endfacet
  facet normal 0 1 0
    outer loop
      vertex 64 34 42
      vertex 55.8 34 8
      vertex 55.8 34 34
    endloop
  endfacet
  facet normal 0 1 0
    outer loop
      vertex 64 34 0
      vertex 54.2 34 8
      vertex 55.8 34 8
    endloop
  endfacet
  facet normal 0 1 0
    outer loop
      vertex 54.2 34 8
      vertex 64 34 0
      vertex 46.6 34 8
    endloop
  endfacet
  facet normal 0 1 0
    outer loop
      vertex 46.6 34 8
      vertex 64 34 0
      vertex 45 34 8
    endloop
  endfacet
  facet normal 0 1 0
    outer loop
      vertex 45 34 8
      vertex 64 34 0
      vertex 37.4 34 8
    endloop
  endfacet
  facet normal 0 1 0
    outer loop
      vertex 37.4 34 8
      vertex 64 34 0
      vertex 35.8 34 8
    endloop
  endfacet
  facet normal 0 1 0
    outer loop
      vertex 35.8 34 8
      vertex 64 34 0
      vertex 28.2 34 8
    endloop
  endfacet
  facet normal 0 1 0
    outer loop
      vertex 0 34 0
      vertex 28.2 34 8
      vertex 64 34 0
    endloop
  endfacet
  facet normal 0 1 0
    outer loop
      vertex 28.2 34 8
      vertex 0 34 0
      vertex 26.6 34 8
    endloop
  endfacet
  facet normal 0 1 0
    outer loop
      vertex 26.6 34 8
      vertex 0 34 0
      vertex 19 34 8
    endloop
  endfacet
  facet normal 0 1 0
    outer loop
      vertex 19 34 8
      vertex 0 34 0
      vertex 17.4 34 8
    endloop
  endfacet
  facet normal 0 1 0
    outer loop
      vertex 17.4 34 8
      vertex 0 34 0
      vertex 9.8 34 8
    endloop
  endfacet
  facet normal 0 1 -0
    outer loop
      vertex 64 34 0
      vertex 55.8 34 8
      vertex 64 34 42
    endloop
  endfacet
  facet normal 0 1 0
    outer loop
      vertex 46.6 34 34
      vertex 64 34 42
      vertex 54.2 34 34
    endloop
  endfacet
  facet normal 0 1 0
    outer loop
      vertex 45 34 34
      vertex 64 34 42
      vertex 46.6 34 34
    endloop
  endfacet
  facet normal 0 1 0
    outer loop
      vertex 37.4 34 34
      vertex 64 34 42
      vertex 45 34 34
    endloop
  endfacet
  facet normal 0 1 0
    outer loop
      vertex 35.8 34 34
      vertex 64 34 42
      vertex 37.4 34 34
    endloop
  endfacet
  facet normal 0 1 0
    outer loop
      vertex 64 34 42
      vertex 35.8 34 34
      vertex 0 34 42
    endloop
  endfacet
  facet normal 0 1 -0
    outer loop
      vertex 28.2 34 34
      vertex 0 34 42
      vertex 35.8 34 34
    endloop
  endfacet
  facet normal 0 1 -0
    outer loop
      vertex 26.6 34 34
      vertex 0 34 42
      vertex 28.2 34 34
    endloop
  endfacet
  facet normal 0 1 -0
    outer loop
      vertex 19 34 34
      vertex 0 34 42
      vertex 26.6 34 34
    endloop
  endfacet
  facet normal 0 1 -0
    outer loop
      vertex 17.4 34 34
      vertex 0 34 42
      vertex 19 34 34
    endloop
  endfacet
  facet normal 0 1 -0
    outer loop
      vertex 9.8 34 34
      vertex 0 34 42
      vertex 17.4 34 34
    endloop
  endfacet
  facet normal 0 1 -0
    outer loop
      vertex 8.2 34 34
      vertex 0 34 42
      vertex 9.8 34 34
    endloop
  endfacet
  facet normal 0 1 -0
    outer loop
      vertex 8.2 34 8
      vertex 0 34 42
      vertex 8.2 34 34
    endloop
  endfacet
  facet normal 0 1 0
    outer loop
      vertex 8.2 34 8
      vertex 0 34 0
      vertex 0 34 42
    endloop
  endfacet
  facet normal 0 1 0
    outer loop
      vertex 9.8 34 8
      vertex 0 34 0
      vertex 8.2 34 8
    endloop
  endfacet
  facet normal 0 -1 0
    outer loop
      vertex 46.6 0 8
      vertex 54.2 0 34
      vertex 46.6 0 34
    endloop
  endfacet
  facet normal 0 -1 -0
    outer loop
      vertex 54.2 0 34
      vertex 46.6 0 8
      vertex 54.2 0 8
    endloop
  endfacet
  facet normal 0 -1 0
    outer loop
      vertex 37.4 0 8
      vertex 45 0 34
      vertex 37.4 0 34
    endloop
  endfacet
  facet normal 0 -1 -0
    outer loop
      vertex 45 0 34
      vertex 37.4 0 8
      vertex 45 0 8
    endloop
  endfacet
  facet normal 0 -1 0
    outer loop
      vertex 28.2 0 8
      vertex 35.8 0 34
      vertex 28.2 0 34
    endloop
  endfacet
  facet normal 0 -1 -0
    outer loop
      vertex 35.8 0 34
      vertex 28.2 0 8
      vertex 35.8 0 8
    endloop
  endfacet
  facet normal 0 -1 0
    outer loop
      vertex 19 0 8
      vertex 26.6 0 34
      vertex 19 0 34
    endloop
  endfacet
  facet normal 0 -1 -0
    outer loop
      vertex 26.6 0 34
      vertex 19 0 8
      vertex 26.6 0 8
    endloop
  endfacet
  facet normal 0 -1 0
    outer loop
      vertex 9.8 0 8
      vertex 17.4 0 34
      vertex 9.8 0 34
    endloop
  endfacet
  facet normal 0 -1 -0
    outer loop
      vertex 17.4 0 34
      vertex 9.8 0 8
      vertex 17.4 0 8
    endloop
  endfacet
  facet normal 0 -1 0
    outer loop
      vertex 9.8 0 34
      vertex 0 0 42
      vertex 8.2 0 34
    endloop
  endfacet
  facet normal 0 -1 0
    outer loop
      vertex 0 0 42
      vertex 8.2 0 8
      vertex 8.2 0 34
    endloop
  endfacet
  facet normal 0 -1 0
    outer loop
      vertex 0 0 0
      vertex 9.8 0 8
      vertex 8.2 0 8
    endloop
  endfacet
  facet normal 0 -1 -0
    outer loop
      vertex 9.8 0 8
      vertex 0 0 0
      vertex 17.4 0 8
    endloop
  endfacet
  facet normal 0 -1 -0
    outer loop
      vertex 17.4 0 8
      vertex 0 0 0
      vertex 19 0 8
    endloop
  endfacet
  facet normal 0 -1 -0
    outer loop
      vertex 19 0 8
      vertex 0 0 0
      vertex 26.6 0 8
    endloop
  endfacet
  facet normal 0 -1 -0
    outer loop
      vertex 26.6 0 8
      vertex 0 0 0
      vertex 28.2 0 8
    endloop
  endfacet
  facet normal 0 -1 -0
    outer loop
      vertex 28.2 0 8
      vertex 0 0 0
      vertex 35.8 0 8
    endloop
  endfacet
  facet normal 0 -1 0
    outer loop
      vertex 64 0 0
      vertex 35.8 0 8
      vertex 0 0 0
    endloop
  endfacet
  facet normal 0 -1 0
    outer loop
      vertex 35.8 0 8
      vertex 64 0 0
      vertex 37.4 0 8
    endloop
  endfacet
  facet normal 0 -1 0
    outer loop
      vertex 37.4 0 8
      vertex 64 0 0
      vertex 45 0 8
    endloop
  endfacet
  facet normal 0 -1 0
    outer loop
      vertex 45 0 8
      vertex 64 0 0
      vertex 46.6 0 8
    endloop
  endfacet
  facet normal 0 -1 0
    outer loop
      vertex 46.6 0 8
      vertex 64 0 0
      vertex 54.2 0 8
    endloop
  endfacet
  facet normal 0 -1 0
    outer loop
      vertex 0 0 0
      vertex 8.2 0 8
      vertex 0 0 42
    endloop
  endfacet
  facet normal 0 -1 0
    outer loop
      vertex 17.4 0 34
      vertex 0 0 42
      vertex 9.8 0 34
    endloop
  endfacet
  facet normal 0 -1 0
    outer loop
      vertex 19 0 34
      vertex 0 0 42
      vertex 17.4 0 34
    endloop
  endfacet
  facet normal 0 -1 0
    outer loop
      vertex 26.6 0 34
      vertex 0 0 42
      vertex 19 0 34
    endloop
  endfacet
  facet normal 0 -1 0
    outer loop
      vertex 28.2 0 34
      vertex 0 0 42
      vertex 26.6 0 34
    endloop
  endfacet
  facet normal 0 -1 0
    outer loop
      vertex 0 0 42
      vertex 28.2 0 34
      vertex 64 0 42
    endloop
  endfacet
  facet normal 0 -1 0
    outer loop
      vertex 35.8 0 34
      vertex 64 0 42
      vertex 28.2 0 34
    endloop
  endfacet
  facet normal 0 -1 0
    outer loop
      vertex 37.4 0 34
      vertex 64 0 42
      vertex 35.8 0 34
    endloop
  endfacet
  facet normal 0 -1 0
    outer loop
      vertex 45 0 34
      vertex 64 0 42
      vertex 37.4 0 34
    endloop
  endfacet
  facet normal 0 -1 0
    outer loop
      vertex 46.6 0 34
      vertex 64 0 42
      vertex 45 0 34
    endloop
  endfacet
  facet normal 0 -1 0
    outer loop
      vertex 54.2 0 34
      vertex 64 0 42
      vertex 46.6 0 34
    endloop
  endfacet
  facet normal 0 -1 0
    outer loop
      vertex 55.8 0 34
      vertex 64 0 42
      vertex 54.2 0 34
    endloop
  endfacet
  facet normal 0 -1 0
    outer loop
      vertex 55.8 0 8
      vertex 64 0 42
      vertex 55.8 0 34
    endloop
  endfacet
  facet normal 0 -1 0
    outer loop
      vertex 55.8 0 8
      vertex 64 0 0
      vertex 64 0 42
    endloop
  endfacet
  facet normal 0 -1 0
    outer loop
      vertex 54.2 0 8
      vertex 64 0 0
      vertex 55.8 0 8
    endloop
  endfacet
  facet normal -1 0 0
    outer loop
      vertex 62 6 2
      vertex 62 2 2
      vertex 62 6 9
    endloop
  endfacet
  facet normal -1 0 0
    outer loop
      vertex 62 28 9
      vertex 62 32 2
      vertex 62 28 2
    endloop
  endfacet
  facet normal -1 0 0
    outer loop
      vertex 62 32 2
      vertex 62 28 9
      vertex 62 32 42
    endloop
  endfacet
  facet normal -1 0 0
    outer loop
      vertex 62 6 9
      vertex 62 32 42
      vertex 62 28 9
    endloop
  endfacet
  facet normal -1 0 0
    outer loop
      vertex 62 6 9
      vertex 62 2 42
      vertex 62 32 42
    endloop
  endfacet
  facet normal -1 0 0
    outer loop
      vertex 62 2 42
      vertex 62 6 9
      vertex 62 2 2
    endloop
  endfacet
  facet normal -0 0 1
    outer loop
      vertex 2 32 2
      vertex 62 28 2
      vertex 62 32 2
    endloop
  endfacet
  facet normal 0 0 1
    outer loop
      vertex 62 28 2
      vertex 2 32 2
      vertex 62 6 2
    endloop
  endfacet
  facet normal 0 0 1
    outer loop
      vertex 2 2 2
      vertex 62 6 2
      vertex 2 32 2
    endloop
  endfacet
  facet normal 0 0 1
    outer loop
      vertex 62 6 2
      vertex 2 2 2
      vertex 62 2 2
    endloop
  endfacet
  facet normal -0 0 1
    outer loop
      vertex 62 28 2
      vertex 64 6 2
      vertex 64 28 2
    endloop
  endfacet
  facet normal 0 0 1
    outer loop
      vertex 64 6 2
      vertex 62 28 2
      vertex 62 6 2
    endloop
  endfacet
  facet normal 1 -0 0
    outer loop
      vertex 2 2 42
      vertex 2 32 2
      vertex 2 32 42
    endloop
  endfacet
  facet normal 1 0 0
    outer loop
      vertex 2 32 2
      vertex 2 2 42
      vertex 2 2 2
    endloop
  endfacet
  facet normal 0 -1 0
    outer loop
      vertex 46.6 32 8
      vertex 54.2 32 34
      vertex 46.6 32 34
    endloop
  endfacet
  facet normal 0 -1 -0
    outer loop
      vertex 54.2 32 34
      vertex 46.6 32 8
      vertex 54.2 32 8
    endloop
  endfacet
  facet normal 0 -1 0
    outer loop
      vertex 37.4 32 8
      vertex 45 32 34
      vertex 37.4 32 34
    endloop
  endfacet
  facet normal 0 -1 -0
    outer loop
      vertex 45 32 34
      vertex 37.4 32 8
      vertex 45 32 8
    endloop
  endfacet
  facet normal 0 -1 0
    outer loop
      vertex 28.2 32 8
      vertex 35.8 32 34
      vertex 28.2 32 34
    endloop
  endfacet
  facet normal 0 -1 -0
    outer loop
      vertex 35.8 32 34
      vertex 28.2 32 8
      vertex 35.8 32 8
    endloop
  endfacet
  facet normal 0 -1 0
    outer loop
      vertex 19 32 8
      vertex 26.6 32 34
      vertex 19 32 34
    endloop
  endfacet
  facet normal 0 -1 -0
    outer loop
      vertex 26.6 32 34
      vertex 19 32 8
      vertex 26.6 32 8
    endloop
  endfacet
  facet normal 0 -1 0
    outer loop
      vertex 9.8 32 8
      vertex 17.4 32 34
      vertex 9.8 32 34
    endloop
  endfacet
  facet normal 0 -1 -0
    outer loop
      vertex 17.4 32 34
      vertex 9.8 32 8
      vertex 17.4 32 8
    endloop
  endfacet
  facet normal 0 -1 0
    outer loop
      vertex 9.8 32 34
      vertex 2 32 42
      vertex 8.2 32 34
    endloop
  endfacet
  facet normal 0 -1 0
    outer loop
      vertex 2 32 2
      vertex 8.2 32 34
      vertex 2 32 42
    endloop
  endfacet
  facet normal 0 -1 0
    outer loop
      vertex 2 32 2
      vertex 9.8 32 8
      vertex 8.2 32 8
    endloop
  endfacet
  facet normal 0 -1 -0
    outer loop
      vertex 9.8 32 8
      vertex 2 32 2
      vertex 17.4 32 8
    endloop
  endfacet
  facet normal 0 -1 -0
    outer loop
      vertex 17.4 32 8
      vertex 2 32 2
      vertex 19 32 8
    endloop
  endfacet
  facet normal 0 -1 -0
    outer loop
      vertex 19 32 8
      vertex 2 32 2
      vertex 26.6 32 8
    endloop
  endfacet
  facet normal 0 -1 -0
    outer loop
      vertex 26.6 32 8
      vertex 2 32 2
      vertex 28.2 32 8
    endloop
  endfacet
  facet normal 0 -1 -0
    outer loop
      vertex 28.2 32 8
      vertex 2 32 2
      vertex 35.8 32 8
    endloop
  endfacet
  facet normal 0 -1 0
    outer loop
      vertex 62 32 2
      vertex 35.8 32 8
      vertex 2 32 2
    endloop
  endfacet
  facet normal 0 -1 0
    outer loop
      vertex 35.8 32 8
      vertex 62 32 2
      vertex 37.4 32 8
    endloop
  endfacet
  facet normal 0 -1 0
    outer loop
      vertex 37.4 32 8
      vertex 62 32 2
      vertex 45 32 8
    endloop
  endfacet
  facet normal 0 -1 0
    outer loop
      vertex 45 32 8
      vertex 62 32 2
      vertex 46.6 32 8
    endloop
  endfacet
  facet normal 0 -1 0
    outer loop
      vertex 46.6 32 8
      vertex 62 32 2
      vertex 54.2 32 8
    endloop
  endfacet
  facet normal 0 -1 -0
    outer loop
      vertex 8.2 32 34
      vertex 2 32 2
      vertex 8.2 32 8
    endloop
  endfacet
  facet normal 0 -1 0
    outer loop
      vertex 17.4 32 34
      vertex 2 32 42
      vertex 9.8 32 34
    endloop
  endfacet
  facet normal 0 -1 0
    outer loop
      vertex 19 32 34
      vertex 2 32 42
      vertex 17.4 32 34
    endloop
  endfacet
  facet normal 0 -1 0
    outer loop
      vertex 26.6 32 34
      vertex 2 32 42
      vertex 19 32 34
    endloop
  endfacet
  facet normal 0 -1 0
    outer loop
      vertex 28.2 32 34
      vertex 2 32 42
      vertex 26.6 32 34
    endloop
  endfacet
  facet normal 0 -1 0
    outer loop
      vertex 2 32 42
      vertex 28.2 32 34
      vertex 62 32 42
    endloop
  endfacet
  facet normal 0 -1 0
    outer loop
      vertex 35.8 32 34
      vertex 62 32 42
      vertex 28.2 32 34
    endloop
  endfacet
  facet normal 0 -1 0
    outer loop
      vertex 37.4 32 34
      vertex 62 32 42
      vertex 35.8 32 34
    endloop
  endfacet
  facet normal 0 -1 0
    outer loop
      vertex 45 32 34
      vertex 62 32 42
      vertex 37.4 32 34
    endloop
  endfacet
  facet normal 0 -1 0
    outer loop
      vertex 46.6 32 34
      vertex 62 32 42
      vertex 45 32 34
    endloop
  endfacet
  facet normal 0 -1 0
    outer loop
      vertex 54.2 32 34
      vertex 62 32 42
      vertex 46.6 32 34
    endloop
  endfacet
  facet normal 0 -1 0
    outer loop
      vertex 55.8 32 34
      vertex 62 32 42
      vertex 54.2 32 34
    endloop
  endfacet
  facet normal 0 -1 0
    outer loop
      vertex 62 32 2
      vertex 55.8 32 34
      vertex 55.8 32 8
    endloop
  endfacet
  facet normal 0 -1 0
    outer loop
      vertex 55.8 32 34
      vertex 62 32 2
      vertex 62 32 42
    endloop
  endfacet
  facet normal 0 -1 0
    outer loop
      vertex 54.2 32 8
      vertex 62 32 2
      vertex 55.8 32 8
    endloop
  endfacet
  facet normal 0 1 -0
    outer loop
      vertex 17.4 2 8
      vertex 9.8 2 34
      vertex 17.4 2 34
    endloop
  endfacet
  facet normal 0 1 0
    outer loop
      vertex 9.8 2 34
      vertex 17.4 2 8
      vertex 9.8 2 8
    endloop
  endfacet
  facet normal 0 1 -0
    outer loop
      vertex 26.6 2 8
      vertex 19 2 34
      vertex 26.6 2 34
    endloop
  endfacet
  facet normal 0 1 0
    outer loop
      vertex 19 2 34
      vertex 26.6 2 8
      vertex 19 2 8
    endloop
  endfacet
  facet normal 0 1 -0
    outer loop
      vertex 35.8 2 8
      vertex 28.2 2 34
      vertex 35.8 2 34
    endloop
  endfacet
  facet normal 0 1 0
    outer loop
      vertex 28.2 2 34
      vertex 35.8 2 8
      vertex 28.2 2 8
    endloop
  endfacet
  facet normal 0 1 -0
    outer loop
      vertex 45 2 8
      vertex 37.4 2 34
      vertex 45 2 34
    endloop
  endfacet
  facet normal 0 1 0
    outer loop
      vertex 37.4 2 34
      vertex 45 2 8
      vertex 37.4 2 8
    endloop
  endfacet
  facet normal 0 1 -0
    outer loop
      vertex 54.2 2 8
      vertex 46.6 2 34
      vertex 54.2 2 34
    endloop
  endfacet
  facet normal 0 1 0
    outer loop
      vertex 46.6 2 34
      vertex 54.2 2 8
      vertex 46.6 2 8
    endloop
  endfacet
  facet normal 0 1 0
    outer loop
      vertex 54.2 2 34
      vertex 62 2 42
      vertex 55.8 2 34
    endloop
  endfacet
  facet normal 0 1 -0
    outer loop
      vertex 62 2 2
      vertex 55.8 2 34
      vertex 62 2 42
    endloop
  endfacet
  facet normal 0 1 0
    outer loop
      vertex 62 2 2
      vertex 54.2 2 8
      vertex 55.8 2 8
    endloop
  endfacet
  facet normal 0 1 0
    outer loop
      vertex 54.2 2 8
      vertex 62 2 2
      vertex 46.6 2 8
    endloop
  endfacet
  facet normal 0 1 0
    outer loop
      vertex 46.6 2 8
      vertex 62 2 2
      vertex 45 2 8
    endloop
  endfacet
  facet normal 0 1 0
    outer loop
      vertex 45 2 8
      vertex 62 2 2
      vertex 37.4 2 8
    endloop
  endfacet
  facet normal 0 1 0
    outer loop
      vertex 37.4 2 8
      vertex 62 2 2
      vertex 35.8 2 8
    endloop
  endfacet
  facet normal 0 1 0
    outer loop
      vertex 35.8 2 8
      vertex 62 2 2
      vertex 28.2 2 8
    endloop
  endfacet
  facet normal 0 1 0
    outer loop
      vertex 2 2 2
      vertex 28.2 2 8
      vertex 62 2 2
    endloop
  endfacet
  facet normal 0 1 0
    outer loop
      vertex 28.2 2 8
      vertex 2 2 2
      vertex 26.6 2 8
    endloop
  endfacet
  facet normal 0 1 0
    outer loop
      vertex 26.6 2 8
      vertex 2 2 2
      vertex 19 2 8
    endloop
  endfacet
  facet normal 0 1 0
    outer loop
      vertex 19 2 8
      vertex 2 2 2
      vertex 17.4 2 8
    endloop
  endfacet
  facet normal 0 1 0
    outer loop
      vertex 17.4 2 8
      vertex 2 2 2
      vertex 9.8 2 8
    endloop
  endfacet
  facet normal 0 1 0
    outer loop
      vertex 55.8 2 34
      vertex 62 2 2
      vertex 55.8 2 8
    endloop
  endfacet
  facet normal 0 1 0
    outer loop
      vertex 46.6 2 34
      vertex 62 2 42
      vertex 54.2 2 34
    endloop
  endfacet
  facet normal 0 1 0
    outer loop
      vertex 45 2 34
      vertex 62 2 42
      vertex 46.6 2 34
    endloop
  endfacet
  facet normal 0 1 0
    outer loop
      vertex 37.4 2 34
      vertex 62 2 42
      vertex 45 2 34
    endloop
  endfacet
  facet normal 0 1 0
    outer loop
      vertex 35.8 2 34
      vertex 62 2 42
      vertex 37.4 2 34
    endloop
  endfacet
  facet normal 0 1 0
    outer loop
      vertex 62 2 42
      vertex 35.8 2 34
      vertex 2 2 42
    endloop
  endfacet
  facet normal 0 1 -0
    outer loop
      vertex 28.2 2 34
      vertex 2 2 42
      vertex 35.8 2 34
    endloop
  endfacet
  facet normal 0 1 -0
    outer loop
      vertex 26.6 2 34
      vertex 2 2 42
      vertex 28.2 2 34
    endloop
  endfacet
  facet normal 0 1 -0
    outer loop
      vertex 19 2 34
      vertex 2 2 42
      vertex 26.6 2 34
    endloop
  endfacet
  facet normal 0 1 -0
    outer loop
      vertex 17.4 2 34
      vertex 2 2 42
      vertex 19 2 34
    endloop
  endfacet
  facet normal 0 1 -0
    outer loop
      vertex 9.8 2 34
      vertex 2 2 42
      vertex 17.4 2 34
    endloop
  endfacet
  facet normal 0 1 -0
    outer loop
      vertex 8.2 2 34
      vertex 2 2 42
      vertex 9.8 2 34
    endloop
  endfacet
  facet normal 0 1 0
    outer loop
      vertex 2 2 2
      vertex 8.2 2 34
      vertex 8.2 2 8
    endloop
  endfacet
  facet normal 0 1 0
    outer loop
      vertex 8.2 2 34
      vertex 2 2 2
      vertex 2 2 42
    endloop
  endfacet
  facet normal 0 1 0
    outer loop
      vertex 9.8 2 8
      vertex 2 2 2
      vertex 8.2 2 8
    endloop
  endfacet
  facet normal 0 0 -1
    outer loop
      vertex 62 6 9
      vertex 64 28 9
      vertex 64 6 9
    endloop
  endfacet
  facet normal -0 0 -1
    outer loop
      vertex 64 28 9
      vertex 62 6 9
      vertex 62 28 9
    endloop
  endfacet
  facet normal 0 -1 0
    outer loop
      vertex 62 28 2
      vertex 64 28 9
      vertex 62 28 9
    endloop
  endfacet
  facet normal 0 -1 -0
    outer loop
      vertex 64 28 9
      vertex 62 28 2
      vertex 64 28 2
    endloop
  endfacet
  facet normal 0 1 -0
    outer loop
      vertex 64 6 2
      vertex 62 6 9
      vertex 64 6 9
    endloop
  endfacet
  facet normal 0 1 0
    outer loop
      vertex 62 6 9
      vertex 64 6 2
      vertex 62 6 2
    endloop
  endfacet
endsolid OpenSCAD_Model
